# xmcd
#
# Track frame offsets: 
#        150
#        6150
#        23561
#        39302
#        55330
#        59871
#        75947
#        95324
#        113044
#        117754
#        134626
#        153021
#        166906
#        169237
#        187618
#        206984
#
# Disc length: 3044 seconds
#
# Revision: 0
# Processed by: cddbd v1.5.2PL0 Copyright (c) Steve Scherf et al.
# Submitted via: ExactAudioCopyFreeDBPlugin 1.0
#
DISCID=c50be210
DTITLE=Dawkins and Dawkins - From Now On
DYEAR=2011
DGENRE=R&B
TTITLE0=Fill Me (Interlude 1)
TTITLE1=Get Down
TTITLE2=I'm Just Sayin'
TTITLE3=He Said
TTITLE4=Fill Me (Interlude 2)
TTITLE5=From Now On
TTITLE6=Ordinary
TTITLE7=Like Him
TTITLE8=Fill Me (Interlude 3)
TTITLE9=Best Man
TTITLE10=Pray For Me
TTITLE11=Love Him
TTITLE12=Fill Me (Interlude 4)
TTITLE13=This Praise Is For You
TTITLE14=Back
TTITLE15=Can You Hear Me
EXTD=
EXTT0=
EXTT1=
EXTT2=
EXTT3=
EXTT4=
EXTT5=
EXTT6=
EXTT7=
EXTT8=
EXTT9=
EXTT10=
EXTT11=
EXTT12=
EXTT13=
EXTT14=
EXTT15=
PLAYORDER=
